<svg xmlns="http://www.w3.org/2000/svg" viewBox="0 0 32 32" width="32" height="32">
  <!-- Background circle -->
  <circle cx="16" cy="16" r="15" fill="#f97316" stroke="#ea580c" stroke-width="2"/>
  
  <!-- Book/Education symbol -->
  <path d="M8 12 L24 12 L24 20 L8 20 Z" fill="#ffffff" opacity="0.9"/>
  <path d="M8 12 L8 20 L6 22 L6 14 Z" fill="#ffffff" opacity="0.7"/>
  
  <!-- AI/Circuit pattern -->
  <circle cx="12" cy="14" r="1" fill="#1e40af"/>
  <circle cx="20" cy="14" r="1" fill="#1e40af"/>
  <circle cx="12" cy="18" r="1" fill="#1e40af"/>
  <circle cx="20" cy="18" r="1" fill="#1e40af"/>
  
  <!-- Connection lines -->
  <line x1="13" y1="14" x2="19" y2="14" stroke="#1e40af" stroke-width="0.5"/>
  <line x1="13" y1="18" x2="19" y2="18" stroke="#1e40af" stroke-width="0.5"/>
  <line x1="12" y1="15" x2="12" y2="17" stroke="#1e40af" stroke-width="0.5"/>
  <line x1="20" y1="15" x2="20" y2="17" stroke="#1e40af" stroke-width="0.5"/>
  
  <!-- Cultural element (diya/lamp) -->
  <ellipse cx="16" cy="24" rx="3" ry="1" fill="#fbbf24"/>
  <ellipse cx="16" cy="23" rx="2" ry="0.5" fill="#f59e0b"/>
  <circle cx="16" cy="22" r="0.5" fill="#fbbf24"/>
  
  <!-- Sparkle/learning effect -->
  <path d="M26 8 L27 7 L26 6 L25 7 Z" fill="#ffffff"/>
  <path d="M6 8 L7 7 L6 6 L5 7 Z" fill="#ffffff"/>
  <path d="M16 4 L17 3 L16 2 L15 3 Z" fill="#ffffff"/>
</svg> 